PathFileType	4	(X/Y/Z)	C:/Users/beibeiliu/ov580/test_trc/User2\sequence.16_training_dense_right.trc
DataRate	CameraRate	NumFrames	NumMarkers	Units	OrigDataRate	OrigDataStartFrame	OrigNumFrames
120	120	16	19	mm	120	360	411
Frame#	Time	ThumbCMC			ThumbMCP			ThumbIP			ThumbTip			IndexMCP			IndexPIP			IndexTip			MiddleMCP			MiddlePIP			MiddleTip			RingMCP			RingPIP			RingTip			PinkyMCP			PinkyPIP			PinkyTip			BackHand1			BackHand2			BackHand3	
		X0	Y0	Z0	X1	Y1	Z1	X2	Y2	Z2	X3	Y3	Z3	X4	Y4	Z4	X5	Y5	Z5	X6	Y6	Z6	X7	Y7	Z7	X8	Y8	Z8	X9	Y9	Z9	X10	Y10	Z10	X11	Y11	Z11	X12	Y12	Z12	X13	Y13	Z13	X14	Y14	Z14	X15	Y15	Z15	X16	Y16	Z16	X17	Y17	Z17	X18	Y18	Z18	
359	2.99167	47.71	16.6898	50.4917	34.2212	4.66389	24.7834	16.7727	-8.08812	-1.61375	7.92053	-20.1682	-22.9376	75.279	20.2065	-33.2699	81.5387	11.0949	-63.6748	93.8342	2.67121	-83.8036	103.999	-2.61077	-27.5716	104.891	-37.2051	-18.8322	87.0294	-30.327	18.9443	121.964	-15.6206	-12.0256	112.378	-38.7513	8.80564	96.0449	-17.3033	32.237	133.328	-15.1411	2.52957	119.02	-33.4724	21.2723	109.109	-12.5073	46.2954	115.004	38.7483	25.6283	110.124	49.8126	56.4222	77.4789	43.5852	36.0288	
360	3	47.0037	11.6849	49.9619	34.6101	-1.15594	24.9298	18.4225	-14.6438	-4.51425	11.2378	-27.85	-23.3745	76.257	16.6707	-36.6682	85.0285	8.51187	-57.9098	91.5062	0.0614255	-82.0933	105.161	-5.314	-27.2828	106.796	-38.8292	-15.3177	90.687	-30.9262	21.3345	124.367	-16.04	-11.2508	114.548	-37.1852	8.57075	99.7669	-19.2295	33.9335	135.98	-11.5017	3.64291	123.328	-32.2118	26.5489	109.647	-10.242	46.1183	113.918	41.5326	25.2647	102.677	48.2405	57.4463	76.0553	40.0359	34.3927	
361	3.00833	45.1219	7.52109	49.3935	29.4254	-6.00928	25.1333	19.5205	-18.5215	-5.04866	12.436	-32.0592	-23.5101	74.6019	14.1763	-33.5481	84.0514	6.68669	-59.0372	91.4	-2.07744	-85.9126	100.551	-2.96275	-26.1762	106.452	-36.9086	-16.7666	91.9456	-30.7287	24.0101	123.052	-9.86344	-9.25464	116.435	-36.5217	12.2994	95.9503	-16.4462	34.5312	136	-8.07911	5.04281	119.81	-30.1412	25.9191	109.784	-11.7245	48.6003	109.486	43.214	29.0665	102.614	47.8439	61.0675	68.3459	36.1562	35.8269	
362	3.01667	45.2201	4.69446	55.0481	25.7919	-9.89223	29.6263	14.5374	-23.7768	2.35088	9.7777	-36.3604	-17.5876	68.1576	12.4696	-28.9027	79.519	4.70087	-56.504	86.4698	-2.02727	-80.8236	101.488	-3.82883	-22.7316	108.51	-37.1254	-12.0021	94.4241	-31.5895	26.2256	116.89	-11.994	-9.33998	115.958	-34.4236	8.95838	98.9497	-17.404	39.0474	133.795	-6.72759	6.28452	123.978	-29.4607	27.7893	104.507	-9.89062	47.4012	100.119	41.9505	28.8587	93.221	45.8539	61.7238	65.8955	37.3684	43.6815	
363	3.025	37.2179	0.13463	59.0163	27.0191	-12.2916	35.8609	13.3349	-26.5669	2.54007	6.7734	-38.541	-17.1174	62.4658	9.42322	-28.5921	69.9454	2.85776	-53.2698	84.2885	-1.42078	-79.4034	96.6342	-5.12937	-22.3079	102.913	-38.34	-12.2526	91.126	-33.878	26.5364	112.199	-9.93335	-6.47608	113.128	-34.6063	13.6203	94.6168	-16.4828	41.3732	130.918	-5.12202	7.9262	120.991	-27.8936	29.9759	100.379	-8.3943	49.4068	97.0054	40.0604	28.9983	87.8213	47.6925	63.9678	60.8948	35.3859	45.1985	
364	3.03333	36.2507	-0.657767	56.6756	24.5918	-14.2729	35.678	8.12624	-27.8055	5.21344	3.47858	-41.4089	-11.586	61.1895	10.0426	-25.2033	65.4136	3.61317	-48.8605	73.3552	-2.6128	-77.8296	93.4391	-6.46585	-22.4078	101.77	-38.6617	-7.1113	88.7421	-34.3715	28.3941	109.207	-10.6468	-6.91392	111.269	-34.8064	14.1668	91.3516	-19.9692	40.1991	124.877	-3.14876	8.02795	120.424	-28.1099	30.6245	101.15	-8.03104	51.9858	91.0672	40.9044	33.1356	83.5187	46.7913	65.8483	56.3807	32.1819	45.9737	
365	3.04167	34.5016	1.9366	59.9071	18.8493	-12.9277	37.0484	6.09255	-25.259	6.99602	-2.70174	-38.4316	-6.77511	57.0311	11.2221	-22.2044	61.8708	4.23663	-52.4164	68.8335	-0.449979	-77.8158	87.2825	-7.24898	-23.0026	95.0316	-39.7842	-11.4264	86.8305	-34.7153	27.5396	105.132	-9.87152	-7.23803	106.445	-35.6024	8.14556	92.8649	-21.3569	39.2131	124.987	-4.48409	6.83613	116.041	-30.1616	29.3485	99.4554	-9.96107	49.878	91.6095	40.923	29.3394	82.7762	47.7453	66.7737	52.148	31.3976	48.0889	
366	3.05	32.4578	5.75842	61.1445	13.7633	-6.35726	34.8954	-2.08566	-17.7634	8.62704	-10.7656	-29.5698	-7.90697	54.8551	14.115	-27.7474	60.7802	8.1143	-53.1304	65.5464	2.48814	-80.2445	83.8785	-4.12991	-22.7668	87.3055	-40.1488	-13.7322	79.1009	-34.8078	24.4691	104.364	-12.9567	-9.76432	105.141	-36.9252	7.24931	84.6852	-20.3521	37.1134	117.356	-5.23429	3.76814	107.945	-32.5101	23.1902	93.8675	-13.2899	45.1531	89.3357	37.7983	27.1903	87.93	46.3289	62.6561	56.1777	36.6295	46.814	
367	3.05833	34.2934	11.22	57.0759	13.6048	2.20749	36.6472	-5.08838	-8.25064	8.81431	-14.0948	-17.8724	-9.76478	54.9047	18.6485	-26.3212	55.3408	11.3525	-55.1062	61.6829	6.42236	-78.8215	79.6757	-5.25347	-26.4339	82.7048	-38.3843	-18.2608	72.9774	-30.3843	24.9409	99.8795	-12.9025	-12.9589	94.3381	-40.2571	6.40671	80.854	-20.1387	32.8535	117.44	-12.7451	-0.133071	103.163	-34.2373	19.1072	92.552	-16.2878	41.3024	93.6267	39.2399	22.5843	95.1364	46.0779	59.8854	56.4901	36.6693	40.4625	
368	3.06667	34.5493	17.7804	56.9271	16.6623	10.2085	32.1849	-5.58236	4.43925	8.80944	-20.7103	-3.76309	-12.6875	49.1222	23.6164	-29.4045	53.4988	18.3669	-54.2761	57.2626	12.2237	-81.815	74.8852	-1.0159	-28.5864	76.6672	-38.0068	-19.9706	68.031	-29.0457	19.6337	93.3653	-12.6676	-17.0683	88.6177	-40.1424	3.51668	79.2475	-19.4098	30.8994	112.527	-13.7979	-3.84305	98.5481	-37.1173	15.5996	91.9589	-16.8438	42.5069	97.0764	37.5882	21.8932	97.1987	46.2113	57.5805	65.1436	42.392	42.5437	
369	3.075	35.9633	23.9815	53.4529	18.5843	18.6071	35.0315	-2.74181	15.1015	3.08265	-20.0047	8.80859	-14.532	55.766	28.426	-34.2632	56.4019	23.0121	-58.5187	61.65	17.2319	-87.0595	75.0397	-0.704362	-32.1386	68.5226	-36.2077	-21.7587	62.5901	-26.9915	15.6927	90.9816	-18.2202	-20.2985	81.675	-39.4889	-4.27912	74.4779	-20.7766	25.9353	106.014	-16.1477	-6.11317	92.332	-38.5312	14.2341	89.5832	-11.4761	39.0236	100.813	36.8795	21.2461	102.164	42.1722	51.4048	69.7741	45.1056	38.2205	
370	3.08333	38.2341	32.9292	49.4188	20.4531	27.4926	30.2221	-3.24191	26.6321	0.569625	-14.3819	21.0408	-17.636	60.0357	31.9901	-34.3033	59.5357	26.6676	-60.1443	61.5712	20.8886	-87.7755	74.4622	-1.73443	-34.3757	64.4295	-34.1318	-22.8922	60.1793	-22.6077	15.8877	89.3005	-15.5057	-21.0165	75.3331	-38.4398	-0.133423	73.9557	-15.67	27.9801	102.185	-22.4684	-8.71759	83.3968	-36.1023	13.9373	86.2531	-13.2239	36.8217	104.622	32.9678	16.3136	107.628	40.6376	49.4153	72.8989	46.1014	35.9671	
371	3.09167	45.4048	37.0419	50.6374	22.9666	37.5499	26.6712	2.11157	36.3292	0.806722	-13.7722	32.5285	-17.5003	60.9666	34.1064	-37.6759	66.1801	24.1087	-63.8953	67.9941	16.4514	-87.285	73.3109	-0.910418	-33.1889	53.9827	-31.8239	-19.912	53.6423	-16.0598	17.2178	85.7707	-16.1502	-19.0688	70.3029	-37.5767	0.432947	69.2921	-13.1707	27.5315	97.1313	-24.0425	-7.20266	78.8498	-36.6791	15.3062	79.7178	-10.0625	36.5244	108.995	30.887	14.1579	112.581	39.2025	51.7627	80.0522	48.3496	31.6378	
372	3.1	43.9928	44.3257	49.8591	26.5321	43.8673	25.2839	5.60943	45.2071	-3.06197	-9.63516	42.1577	-21.9432	69.7955	31.3949	-38.286	68.4736	24.197	-64.3472	74.4167	11.9572	-88.0187	72.5268	-3.44373	-32.8481	52.6262	-29.0197	-20.4099	50.7821	-12.5962	18.3818	85.0166	-18.6056	-18.2615	61.2861	-33.6332	3.07751	68.8521	-13.3553	28.3126	96.0996	-27.5359	-5.46347	76.267	-40.0437	17.1535	80.1532	-12.0585	38.7318	110.002	28.3301	16.6401	112.83	35.5901	51.0022	80.6054	51.9803	30.755	
373	3.10833	49.7196	46.6064	45.7075	30.8149	49.4639	24.5998	11.0453	52.0122	-3.81259	-5.56322	52.6315	-24.5556	72.8028	32.3047	-37.0986	71.694	24.1525	-64.1196	78.1444	9.33937	-87.7522	67.7184	-1.50892	-34.4027	49.9345	-27.5094	-19.7501	49.9455	-10.4831	17.6266	77.991	-18.9608	-18.4011	56.5243	-31.3443	3.80102	64.3975	-5.88713	28.4548	88.204	-30.6954	-5.14119	69.7584	-39.2048	18.7964	73.7922	-9.52939	37.1489	110.037	22.5827	13.7976	116.243	30.9461	47.8142	85.5131	48.3791	30.5485	
374	3.11667	54.8615	53.0121	44.2029	34.0882	57.7935	24.3939	14.9503	62.8994	-4.9222	0.173239	63.161	-27.2713	74.1271	31.3066	-35.3989	73.1346	20.2484	-62.641	75.331	3.87775	-88.3608	64.6785	-3.97845	-32.3751	39.3028	-22.792	-18.4742	45.8177	-5.53708	18.7099	69.3902	-23.0751	-16.5059	47.6771	-29.7194	2.77008	58.3324	-5.90609	28.5063	78.9965	-34.2561	-3.72246	57.6088	-33.6834	18.3005	69.0566	-9.57926	39.1429	113.5	16.4255	16.9282	118.329	25.2779	51.4087	92.3993	47.3483	26.419	
